<?xml version="1.0" encoding="UTF-8" ?>
<!DOCTYPE svg PUBLIC "-//W3C//DTD SVG 1.1//EN" "http://www.w3.org/Graphics/SVG/1.1/DTD/svg11.dtd">
<svg width="100pt" height="100pt" viewBox="0 0 100 100" version="1.1" xmlns="http://www.w3.org/2000/svg">
<g id="#faabc7ff">
<path fill="#faabc7" opacity="1.00" d=" M 74.33 1.02 C 79.49 -1.03 85.88 1.85 87.79 7.04 C 91.62 17.06 95.57 27.03 99.27 37.08 C 100.98 42.86 96.87 49.00 91.18 50.39 C 91.34 63.27 91.20 76.16 91.25 89.05 C 91.37 92.58 89.50 96.08 86.53 97.97 C 80.11 101.87 72.13 98.07 65.19 100.00 L 32.85 100.00 C 26.79 99.87 14.68 99.62 8.62 99.49 C 4.82 98.64 1.73 95.61 0.63 91.91 C 0.47 87.21 0.16 77.83 0.00 73.14 L 0.00 73.14 C 0.13 67.30 0.40 55.60 0.54 49.76 C 1.88 43.67 8.39 40.78 14.14 41.67 C 13.33 39.15 11.95 36.72 11.98 34.00 C 11.91 29.89 14.48 25.87 18.28 24.27 C 36.96 16.51 55.64 8.74 74.33 1.02 M 20.07 27.20 C 16.80 28.39 14.70 32.11 15.55 35.51 C 16.14 37.58 17.04 39.55 17.72 41.60 C 20.60 41.82 23.51 41.59 26.40 41.72 C 25.40 39.16 24.19 36.66 23.48 34.01 L 24.00 33.13 C 28.91 30.42 34.01 27.97 39.08 25.55 C 39.45 25.71 40.20 26.03 40.57 26.19 C 41.73 29.73 44.27 33.29 44.18 36.95 C 41.49 38.94 38.17 40.03 35.26 41.71 C 50.50 41.67 65.73 41.68 80.97 41.70 C 84.83 41.64 88.22 44.05 90.21 47.22 C 94.04 46.11 97.18 42.21 96.03 38.11 C 92.38 28.14 88.44 18.27 84.67 8.35 C 83.29 4.70 78.74 2.70 75.16 4.35 C 56.79 11.95 38.43 19.58 20.07 27.20 M 27.36 35.10 C 28.14 36.94 28.86 38.79 29.57 40.65 C 33.32 39.00 36.86 36.87 40.65 35.30 C 39.92 33.43 39.01 31.63 38.35 29.73 C 34.77 31.25 31.01 33.35 27.36 35.10 M 3.78 51.62 C 31.82 51.59 59.86 51.70 87.89 51.56 C 87.58 48.10 84.56 45.10 81.03 45.08 C 57.66 45.04 34.29 45.06 10.92 45.07 C 7.28 44.95 4.00 48.00 3.78 51.62 M 3.76 55.01 C 3.75 58.29 3.74 61.58 3.76 64.86 C 31.80 64.89 59.84 64.88 87.87 64.87 C 87.88 61.58 87.88 58.30 87.87 55.02 C 59.84 54.98 31.80 55.00 3.76 55.01 M 3.69 68.13 C 3.87 75.40 3.64 82.69 3.80 89.97 C 4.10 93.51 7.43 96.40 10.97 96.24 C 34.31 96.25 57.65 96.27 80.99 96.23 C 84.74 96.28 88.06 92.83 87.87 89.08 C 87.85 82.11 87.94 75.14 87.83 68.16 C 59.78 68.18 31.73 68.24 3.69 68.13 Z" />
<path fill="#faabc7" opacity="1.00" d=" M 59.49 31.02 C 67.25 27.55 74.85 23.65 82.73 20.49 C 82.98 21.24 83.48 22.74 83.73 23.49 C 76.16 27.11 68.51 30.55 60.90 34.09 C 60.45 33.06 59.98 32.03 59.49 31.02 Z" />
<path fill="#faabc7" opacity="1.00" d=" M 70.04 34.47 C 75.22 32.22 80.37 29.87 85.53 27.60 C 86.58 28.08 86.62 29.58 87.14 30.51 C 81.90 32.85 76.60 35.60 71.25 37.37 C 70.83 36.41 70.42 35.44 70.04 34.47 Z" />
<path fill="#faabc7" opacity="1.00" d=" M 54.93 81.97 C 55.34 74.98 63.87 70.91 69.79 74.32 C 76.05 70.61 84.97 75.62 84.65 82.97 C 85.10 90.49 75.95 95.57 69.61 91.73 C 63.04 95.88 53.63 89.65 54.93 81.97 M 58.26 82.98 C 58.05 87.37 62.69 90.51 66.80 89.54 C 65.48 86.93 64.21 84.00 65.01 80.99 C 65.04 79.32 66.70 78.25 66.61 76.59 C 62.61 75.62 58.18 78.75 58.26 82.98 M 72.63 76.80 C 75.43 80.44 75.35 85.70 72.64 89.36 C 76.71 90.73 81.45 87.38 81.26 83.04 C 81.43 78.74 76.68 75.33 72.63 76.80 M 69.71 87.33 C 71.91 85.05 71.87 81.20 69.82 78.83 C 67.55 81.07 67.73 84.96 69.71 87.33 Z" />
</g>
</svg>
