<?xml version="1.0" encoding="UTF-8" ?>
<!DOCTYPE svg PUBLIC "-//W3C//DTD SVG 1.1//EN" "http://www.w3.org/Graphics/SVG/1.1/DTD/svg11.dtd">
<svg width="100pt" height="103pt" viewBox="0 0 100 103" version="1.1" xmlns="http://www.w3.org/2000/svg">
<g id="#faabc7ff">
<path fill="#faabc7" opacity="1.00" d=" M 45.38 1.53 C 48.15 -0.13 51.84 -0.13 54.61 1.52 C 58.10 3.81 60.42 7.53 64.01 9.65 C 69.53 9.75 75.76 6.48 80.71 10.22 C 85.57 13.87 83.88 20.79 86.22 25.71 C 90.54 29.17 97.76 29.94 99.39 36.05 C 101.14 41.99 95.35 46.50 94.69 52.00 C 95.95 55.48 98.11 58.56 99.33 62.05 C 100.38 65.35 99.23 69.26 96.49 71.41 C 93.30 73.77 89.37 74.92 86.20 77.31 C 83.90 82.22 85.55 89.09 80.75 92.74 C 77.07 95.76 72.16 94.27 67.93 93.72 C 66.11 93.60 63.89 92.66 62.49 94.35 C 58.57 97.42 55.61 102.80 50.01 102.72 C 43.66 102.82 40.89 96.06 35.95 93.35 C 32.26 93.44 28.67 94.45 25.00 94.61 C 21.76 94.76 18.58 92.92 16.99 90.11 C 14.95 86.12 15.66 81.27 13.76 77.27 C 9.43 73.83 2.22 73.04 0.61 66.94 C -0.88 61.39 3.73 56.94 5.31 51.99 C 4.63 46.48 -1.16 41.96 0.62 36.02 C 2.26 29.94 9.46 29.17 13.77 25.72 C 16.13 20.82 14.43 13.91 19.26 10.25 C 24.21 6.46 30.46 9.74 35.99 9.65 C 39.58 7.52 41.90 3.82 45.38 1.53 M 48.21 6.93 C 44.94 9.44 42.56 13.08 38.82 14.96 C 33.98 16.75 28.93 14.19 23.98 14.39 C 23.62 14.63 22.91 15.13 22.56 15.38 C 20.45 19.82 21.63 25.46 18.48 29.49 C 15.33 32.93 10.33 33.74 6.86 36.75 C 5.50 38.56 7.14 40.58 7.86 42.27 C 9.71 46.10 12.77 50.33 10.77 54.72 C 9.66 58.41 6.31 61.58 6.47 65.50 C 9.72 69.79 16.67 69.85 19.39 74.85 C 21.16 78.63 20.93 82.97 22.16 86.92 C 23.10 89.30 25.90 88.57 27.86 88.30 C 31.74 87.91 35.99 86.37 39.65 88.47 C 42.85 90.49 45.14 93.62 48.07 95.98 C 48.92 96.83 50.37 97.02 51.39 96.37 C 54.61 93.99 56.98 90.58 60.38 88.43 C 64.69 86.12 69.58 88.32 74.11 88.54 C 75.56 88.94 77.25 88.41 77.84 86.93 C 78.97 83.17 78.92 79.14 80.31 75.46 C 81.94 71.63 86.24 70.40 89.58 68.52 C 91.27 67.56 93.97 66.66 93.67 64.22 C 92.35 60.33 89.70 56.99 88.70 52.98 C 87.97 48.78 90.86 45.25 92.46 41.63 C 93.31 40.05 94.52 37.71 92.69 36.31 C 89.48 34.05 85.62 32.89 82.50 30.49 C 79.35 27.90 79.40 23.53 78.66 19.87 C 78.21 17.91 78.32 15.27 76.09 14.41 C 71.73 14.28 67.47 15.97 63.11 15.52 C 58.49 14.64 55.93 10.25 52.48 7.50 C 51.50 6.27 49.41 5.66 48.21 6.93 Z" />
<path fill="#faabc7" opacity="1.00" d=" M 34.37 25.51 C 40.48 23.14 47.97 27.44 48.88 33.94 C 50.20 40.37 44.52 46.88 38.00 46.61 C 32.28 46.75 27.08 41.74 27.07 36.01 C 26.89 31.41 30.02 26.97 34.37 25.51 M 36.21 31.22 C 32.99 32.35 32.04 37.02 34.64 39.27 C 37.15 41.91 42.09 40.46 42.84 36.93 C 43.97 33.24 39.68 29.61 36.21 31.22 Z" />
<path fill="#faabc7" opacity="1.00" d=" M 68.34 29.37 C 70.17 28.25 72.97 29.85 72.70 32.03 C 72.94 33.59 71.29 34.43 70.49 35.51 C 58.06 47.74 45.68 60.02 33.27 72.28 C 32.36 73.06 31.40 74.23 30.05 73.96 C 27.34 73.96 26.22 70.05 28.49 68.58 C 41.76 55.50 54.84 42.19 68.34 29.37 Z" />
<path fill="#faabc7" opacity="1.00" d=" M 57.30 57.40 C 63.32 54.37 71.41 58.27 72.68 64.91 C 74.25 71.05 69.31 77.65 63.04 78.05 C 57.17 78.81 51.31 74.03 51.00 68.10 C 50.57 63.66 53.25 59.21 57.30 57.40 M 59.28 63.14 C 56.47 64.78 56.24 69.22 58.92 71.09 C 61.65 73.43 66.36 71.58 66.82 68.03 C 67.67 64.05 62.59 60.75 59.28 63.14 Z" />
</g>
</svg>
