<?xml version="1.0" encoding="UTF-8" ?>
<!DOCTYPE svg PUBLIC "-//W3C//DTD SVG 1.1//EN" "http://www.w3.org/Graphics/SVG/1.1/DTD/svg11.dtd">
<svg width="100pt" height="97pt" viewBox="0 0 100 97" version="1.1" xmlns="http://www.w3.org/2000/svg">
<g id="#faabc7ff">
<path fill="#faabc7" opacity="1.00" d=" M 44.39 3.40 C 46.61 -0.77 53.41 -0.76 55.62 3.41 C 59.22 10.14 62.42 17.07 65.95 23.83 C 73.58 25.06 81.27 25.94 88.89 27.21 C 93.42 27.91 95.67 34.09 92.56 37.49 C 87.15 43.14 81.16 48.23 75.78 53.92 C 77.10 61.23 78.43 68.54 79.60 75.88 C 80.64 80.74 74.83 84.96 70.46 82.70 C 63.59 79.32 56.88 75.64 50.03 72.21 C 43.13 75.60 36.42 79.34 29.51 82.71 C 25.18 84.93 19.42 80.79 20.39 75.95 C 21.55 68.59 22.90 61.25 24.22 53.91 C 18.84 48.24 12.87 43.15 7.45 37.51 C 4.32 34.12 6.57 27.92 11.10 27.22 C 18.72 25.94 26.41 25.06 34.05 23.84 C 37.58 17.07 40.78 10.13 44.39 3.40 M 41.68 20.52 C 39.94 23.57 38.96 28.00 35.04 28.91 C 27.51 30.36 19.82 30.94 12.28 32.39 C 9.98 33.03 12.31 35.05 13.21 35.85 C 17.65 40.07 22.05 44.33 26.49 48.55 C 28.00 49.96 29.48 51.71 29.42 53.91 C 28.60 62.06 26.17 70.01 25.74 78.20 C 33.62 75.60 40.47 70.55 48.13 67.39 C 50.28 66.57 52.51 67.49 54.41 68.50 C 59.92 71.38 65.46 74.23 70.97 77.12 C 71.98 77.58 73.85 78.87 74.36 77.08 C 73.37 69.65 71.73 62.32 70.65 54.91 C 70.30 52.91 71.14 50.89 72.57 49.51 C 77.86 44.20 83.52 39.26 88.69 33.83 L 88.53 32.78 C 80.89 30.69 72.73 30.57 64.94 28.91 C 63.54 28.58 62.27 27.71 61.47 26.51 C 57.31 19.51 54.62 11.67 50.01 4.93 C 46.53 9.71 44.50 15.35 41.68 20.52 Z" />
<path fill="#faabc7" opacity="1.00" d=" M 19.02 4.07 C 20.23 2.79 22.39 3.25 23.23 4.69 C 24.51 6.56 26.93 8.44 26.13 10.96 C 25.05 12.79 22.25 12.77 21.24 10.89 C 19.94 8.98 16.84 6.41 19.02 4.07 Z" />
<path fill="#faabc7" opacity="1.00" d=" M 77.35 4.09 C 79.08 1.98 82.95 4.56 81.50 6.96 C 80.48 8.78 79.24 10.51 77.73 11.96 C 75.85 13.29 72.95 11.30 73.75 9.04 C 74.72 7.24 75.92 5.56 77.35 4.09 Z" />
<path fill="#faabc7" opacity="1.00" d=" M 3.42 57.50 C 5.46 56.85 8.79 55.28 9.93 58.08 C 10.85 61.99 5.61 62.25 3.02 63.02 C -0.93 63.18 -0.19 57.43 3.42 57.50 Z" />
<path fill="#faabc7" opacity="1.00" d=" M 90.53 57.31 C 92.67 55.31 95.68 57.40 98.01 58.05 C 100.41 58.69 100.23 62.35 97.90 62.98 C 95.67 63.08 93.54 62.14 91.50 61.36 C 89.88 60.82 89.38 58.55 90.53 57.31 Z" />
<path fill="#faabc7" opacity="1.00" d=" M 48.29 87.44 C 49.72 86.10 52.51 87.08 52.56 89.09 C 52.70 91.18 52.83 93.32 52.38 95.38 C 51.23 97.80 47.14 96.79 47.39 94.10 C 47.55 91.93 46.64 89.17 48.29 87.44 Z" />
</g>
</svg>
