<?xml version="1.0" encoding="UTF-8" ?>
<!DOCTYPE svg PUBLIC "-//W3C//DTD SVG 1.1//EN" "http://www.w3.org/Graphics/SVG/1.1/DTD/svg11.dtd">
<svg width="40pt" height="46pt" viewBox="0 0 40 46" version="1.1" xmlns="http://www.w3.org/2000/svg">
<g id="#803f7fff">
<path fill="#803f7f" opacity="1.00" d=" M 4.26 3.44 C 4.35 2.61 4.51 0.94 4.59 0.11 C 16.32 0.19 28.05 0.01 39.78 0.20 C 39.98 13.89 39.86 27.59 39.84 41.28 C 38.95 41.33 37.19 41.44 36.30 41.49 C 35.45 42.92 34.58 44.34 33.73 45.77 C 22.57 45.98 11.42 45.87 0.26 45.83 C -0.04 32.57 0.17 19.29 0.15 6.02 C 1.53 5.17 2.90 4.31 4.26 3.44 M 6.41 2.05 C 6.39 2.61 6.37 3.73 6.35 4.29 C 5.97 4.62 5.21 5.27 4.83 5.60 C 13.60 5.53 22.36 5.54 31.12 5.59 C 30.61 3.28 32.71 2.68 34.37 1.93 C 25.06 2.22 15.73 2.00 6.41 2.05 M 33.62 4.42 C 34.50 16.55 34.02 28.76 33.89 40.91 C 35.04 39.99 36.39 39.49 37.82 39.22 C 37.81 27.02 37.82 14.82 37.81 2.62 C 36.42 3.22 35.02 3.82 33.62 4.42 M 2.12 7.50 C 2.12 19.65 2.12 31.79 2.12 43.94 C 12.10 43.94 22.08 43.94 32.06 43.94 C 32.06 31.79 32.06 19.65 32.06 7.50 C 22.08 7.50 12.10 7.50 2.12 7.50 Z" />
<path fill="#803f7f" opacity="1.00" d=" M 7.30 10.86 C 9.42 10.75 11.53 10.73 13.65 10.74 C 10.84 13.40 11.27 17.43 11.88 20.90 C 13.03 24.62 18.37 25.76 21.03 22.95 C 23.54 20.38 22.43 16.41 22.57 13.19 C 21.82 12.42 21.09 11.64 20.37 10.83 C 22.52 10.81 24.67 10.66 26.82 10.80 C 22.69 13.92 26.18 19.59 23.32 23.34 C 20.77 27.09 14.79 27.55 11.67 24.27 C 8.71 21.38 9.78 16.89 9.49 13.19 C 8.94 12.61 7.85 11.44 7.30 10.86 Z" />
</g>
</svg>
