<?xml version="1.0" encoding="UTF-8" ?>
<!DOCTYPE svg PUBLIC "-//W3C//DTD SVG 1.1//EN" "http://www.w3.org/Graphics/SVG/1.1/DTD/svg11.dtd">
<svg width="100pt" height="100pt" viewBox="0 0 100 100" version="1.1" xmlns="http://www.w3.org/2000/svg">
<g id="#faabc7ff">
<path fill="#faabc7" opacity="1.00" d=" M 43.56 5.85 C 55.53 3.94 68.23 6.94 78.05 14.06 C 87.43 20.86 94.42 31.23 96.26 42.75 C 98.81 55.36 95.23 68.96 87.19 78.95 C 78.36 90.06 64.18 96.73 49.98 96.33 C 42.95 96.39 36.09 94.32 29.77 91.36 C 22.07 92.66 14.57 95.35 6.90 96.95 C 5.64 97.50 3.54 96.26 4.10 94.83 C 6.12 88.57 7.54 82.13 9.53 75.86 C 9.92 74.39 10.39 72.68 9.57 71.26 C 3.62 59.95 2.99 46.02 7.78 34.18 C 13.59 19.29 27.78 8.21 43.56 5.85 M 30.41 14.50 C 18.21 21.12 9.43 34.14 8.79 48.11 C 8.09 56.60 10.40 65.07 14.64 72.40 C 12.68 78.86 11.27 85.47 9.04 91.85 C 16.16 91.28 22.91 88.20 29.98 87.03 C 41.01 93.06 54.70 94.08 66.41 89.43 C 76.53 85.45 84.97 77.36 89.46 67.46 C 93.72 58.03 94.17 46.90 90.64 37.17 C 86.94 26.64 78.79 17.86 68.67 13.20 C 56.65 7.63 42.00 8.04 30.41 14.50 Z" />
<path fill="#faabc7" opacity="1.00" d=" M 26.35 39.99 C 26.76 35.62 29.04 31.06 33.09 29.06 C 35.81 28.94 39.69 27.85 41.16 30.93 C 42.88 34.54 44.36 38.27 45.74 42.02 C 44.96 44.33 43.14 46.08 42.02 48.13 C 45.35 53.35 50.19 57.51 55.95 59.82 C 58.10 57.85 59.49 53.82 62.95 54.18 C 66.57 55.18 69.79 57.25 73.19 58.80 C 76.16 59.90 75.10 63.55 74.76 65.94 C 73.28 71.07 67.60 73.51 62.68 73.94 C 50.77 72.68 40.17 65.49 33.04 56.07 C 29.32 51.54 25.86 46.11 26.35 39.99 M 30.75 38.03 C 29.14 44.12 33.14 49.68 36.75 54.17 C 42.69 61.88 51.20 67.87 60.86 69.69 C 65.51 70.51 70.89 67.64 71.51 62.67 C 68.63 60.91 65.53 59.56 62.49 58.08 C 60.74 60.37 59.16 63.54 56.05 64.05 C 48.44 61.48 41.63 56.07 37.97 48.87 C 36.87 45.96 40.22 44.28 41.27 41.97 C 40.40 38.85 38.76 36.03 37.77 32.96 C 34.32 31.68 31.60 35.11 30.75 38.03 Z" />
</g>
</svg>
