<?xml version="1.0" encoding="UTF-8" ?>
<!DOCTYPE svg PUBLIC "-//W3C//DTD SVG 1.1//EN" "http://www.w3.org/Graphics/SVG/1.1/DTD/svg11.dtd">
<svg width="100pt" height="100pt" viewBox="0 0 100 100" version="1.1" xmlns="http://www.w3.org/2000/svg">
<g id="#463b5dff">
<path fill="#463b5d" opacity="1.00" d=" M 42.06 2.83 C 57.37 0.30 73.75 5.26 84.91 16.09 C 93.83 24.48 99.25 36.32 100.00 48.53 L 100.00 53.94 C 99.17 66.02 93.78 77.69 84.98 86.03 C 76.51 94.32 64.97 99.07 53.22 100.00 L 47.60 100.00 C 38.66 99.44 29.81 96.69 22.31 91.73 C 11.35 84.59 3.37 72.95 1.01 60.05 C -1.27 48.27 1.09 35.67 7.52 25.53 C 15.04 13.44 28.00 4.97 42.06 2.83 M 20.80 17.84 C 10.56 26.31 4.38 39.63 5.20 52.97 C 5.32 62.41 9.30 71.36 15.03 78.72 C 15.42 79.27 15.83 79.80 16.26 80.31 C 24.64 88.71 35.85 94.74 47.91 94.95 C 62.20 95.89 76.51 89.26 85.46 78.17 C 85.90 78.78 86.78 79.99 87.22 80.59 C 87.31 79.20 87.20 77.83 86.87 76.50 C 97.01 62.55 97.91 42.39 88.23 27.97 C 80.31 15.44 65.90 7.21 51.02 7.21 C 40.09 6.82 29.08 10.69 20.80 17.84 Z" />
</g>
<g id="#000000ff">
<path fill="#000000" opacity="1.00" d=" M 34.96 27.71 C 37.81 21.06 44.66 16.01 52.05 16.34 C 59.65 16.41 66.18 22.34 68.38 29.39 C 70.45 35.69 68.82 42.56 70.97 48.85 C 71.76 51.78 74.03 53.90 76.01 56.05 C 71.53 59.09 66.09 59.78 60.80 59.85 C 62.87 62.88 65.53 65.78 69.31 66.47 C 75.96 67.90 83.50 69.92 86.87 76.50 C 87.20 77.83 87.31 79.20 87.22 80.59 C 86.78 79.99 85.90 78.78 85.46 78.17 C 83.88 75.88 82.43 73.32 79.85 72.03 C 74.39 68.58 66.94 69.58 62.20 64.83 C 60.01 63.01 59.31 60.19 58.55 57.59 C 63.32 57.88 68.12 57.50 72.70 56.04 C 71.05 53.59 69.33 51.10 68.63 48.19 C 66.80 41.68 68.60 34.59 65.86 28.29 C 63.71 23.03 58.75 18.81 52.97 18.36 C 46.26 17.65 39.81 22.01 37.05 27.99 C 34.18 33.78 35.72 40.45 34.36 46.58 C 33.81 49.92 31.93 52.78 30.09 55.54 C 34.55 57.59 39.45 57.96 44.27 57.21 C 43.41 59.80 42.62 62.61 40.47 64.47 C 35.51 69.27 27.78 68.30 22.32 72.26 C 19.33 74.07 17.84 77.35 16.26 80.31 C 15.83 79.80 15.42 79.27 15.03 78.72 C 17.27 71.16 25.13 67.87 32.19 66.41 C 36.25 65.74 39.48 63.09 41.79 59.81 C 36.42 59.97 31.06 58.75 26.72 55.47 C 28.54 53.58 30.63 51.75 31.49 49.19 C 34.17 42.29 31.85 34.48 34.96 27.71 Z" />
</g>
</svg>
