<?xml version="1.0" encoding="UTF-8" ?>
<!DOCTYPE svg PUBLIC "-//W3C//DTD SVG 1.1//EN" "http://www.w3.org/Graphics/SVG/1.1/DTD/svg11.dtd">
<svg width="100pt" height="100pt" viewBox="0 0 100 100" version="1.1" xmlns="http://www.w3.org/2000/svg">
<g id="#5e5e5eff">
<path fill="#5e5e5e" opacity="1.00" d=" M 45.45 5.58 C 58.95 4.02 73.11 8.60 82.88 18.10 C 90.18 24.92 95.19 34.24 96.51 44.16 C 99.24 60.22 92.03 77.34 78.93 86.95 C 65.11 97.64 45.31 99.29 29.77 91.39 C 23.09 92.42 16.55 94.71 9.93 96.27 C 7.94 96.64 5.29 98.00 3.97 95.68 C 5.84 88.83 7.74 81.96 9.71 75.13 C 10.17 73.65 10.12 72.01 9.29 70.67 C 2.81 58.01 3.07 42.19 9.86 29.70 C 16.82 16.46 30.61 7.23 45.45 5.58 M 44.07 9.87 C 32.45 11.53 21.79 18.56 15.39 28.37 C 8.63 38.29 7.00 51.26 10.39 62.69 C 11.32 66.19 13.31 69.26 14.51 72.64 C 12.77 79.09 11.13 85.57 9.05 91.92 C 16.15 91.08 22.93 88.43 29.92 86.92 C 43.91 94.89 62.53 94.06 75.52 84.43 C 86.09 76.83 93.22 64.16 92.93 51.00 C 93.29 37.79 86.30 24.84 75.59 17.26 C 66.63 10.75 55.00 8.02 44.07 9.87 Z" />
<path fill="#5e5e5e" opacity="1.00" d=" M 28.81 32.96 C 30.23 30.91 32.24 28.64 34.98 28.86 C 36.95 28.99 39.61 28.26 40.77 30.37 C 42.88 34.04 44.19 38.12 45.76 42.05 C 44.77 44.23 43.46 46.24 41.83 47.99 C 45.34 53.16 50.06 57.52 55.95 59.82 C 58.18 57.68 59.97 53.03 63.82 54.40 C 67.62 56.09 71.71 57.56 74.96 60.17 C 75.51 63.43 75.06 67.16 72.69 69.64 C 69.05 73.07 63.62 74.82 58.74 73.32 C 45.88 70.51 35.52 61.08 28.85 50.07 C 25.75 44.96 25.29 37.98 28.81 32.96 M 30.53 39.10 C 29.61 44.86 33.36 49.90 36.74 54.16 C 42.72 61.90 51.27 67.93 60.98 69.71 C 65.59 70.47 71.34 67.51 71.32 62.33 C 68.37 60.95 65.45 59.49 62.50 58.09 C 60.72 60.37 59.14 63.61 55.98 64.03 C 50.00 62.00 44.63 58.26 40.75 53.26 C 39.42 51.43 37.69 49.54 37.74 47.13 C 38.50 45.17 40.22 43.79 41.27 41.99 C 40.39 38.87 38.77 36.02 37.77 32.94 C 33.93 31.67 31.01 35.76 30.53 39.10 Z" />
</g>
</svg>
